# Blender 3.4.1
# www.blender.org
mtllib Scie.mtl
o Cercle
v -0.000000 -2.172123 -3.351731
v 0.048163 -3.012553 -3.715463
v -0.000000 -0.724128 -3.927831
v 0.032644 -1.338109 -4.550344
v 0.000000 0.834108 -3.905955
v 0.021946 0.527444 -4.695290
v 0.000000 2.265360 -3.289431
v 0.028366 2.287307 -4.178063
v 0.000000 3.351731 -2.172123
v 0.019309 3.698093 -2.954008
v 0.000000 3.927831 -0.724128
v 0.029953 4.571621 -1.339256
v 0.000000 3.905955 0.834109
v 0.014502 4.708745 0.535617
v 0.000000 3.289431 2.265360
v 0.028267 4.180815 2.289747
v 0.000000 2.172122 3.351731
v 0.014081 2.950487 3.709275
v 0.000000 0.724128 3.927831
v 0.025868 1.332077 4.565077
v -0.000000 -0.834109 3.905955
v 0.024225 -0.518938 4.693863
v -0.000000 -2.265360 3.289431
v 0.035329 -2.287285 4.192334
v -0.000000 -3.351731 2.172123
v 0.015844 -3.709937 2.956474
v -0.000000 -3.927831 0.724128
v 0.039350 -4.582632 1.351949
v -0.000000 -3.905955 -0.834108
v 0.042753 -4.709984 -0.492746
v -0.000000 -3.289431 -2.265360
v 0.039416 -4.221124 -2.323050
v -0.000000 -0.484437 -0.747518
v -0.000000 -0.329295 -0.827664
v -0.000000 -0.161498 -0.876003
v 0.000000 0.012504 -0.890678
v 0.000000 0.186027 -0.871124
v 0.000000 0.352400 -0.818093
v 0.000000 0.505231 -0.733624
v 0.000000 0.638646 -0.620962
v 0.000000 0.747518 -0.484437
v 0.000000 0.827664 -0.329295
v 0.000000 0.876003 -0.161498
v 0.000000 0.890678 0.012505
v 0.000000 0.871124 0.186027
v 0.000000 0.818094 0.352400
v 0.000000 0.733624 0.505231
v 0.000000 0.620962 0.638646
v 0.000000 0.484437 0.747518
v 0.000000 0.329295 0.827664
v 0.000000 0.161498 0.876003
v -0.000000 -0.012505 0.890678
v -0.000000 -0.186027 0.871124
v -0.000000 -0.352400 0.818094
v -0.000000 -0.505231 0.733624
v -0.000000 -0.638646 0.620962
v -0.000000 -0.747518 0.484437
v -0.000000 -0.827664 0.329295
v -0.000000 -0.876003 0.161498
v -0.000000 -0.890678 -0.012504
v -0.000000 -0.871124 -0.186027
v -0.000000 -0.818094 -0.352400
v -0.000000 -0.733624 -0.505231
v -0.000000 -0.620962 -0.638646
v -0.000000 -2.546883 -2.619414
v -0.000000 -3.008968 -2.072211
v -0.000000 -3.355420 -1.445374
v -0.000000 -3.572925 -0.762991
v -0.000000 -3.653124 -0.051287
v -0.000000 -3.592936 0.662387
v -0.000000 -3.394673 1.350607
v -0.000000 -3.065955 1.986923
v -0.000000 -2.619414 2.546883
v -0.000000 -2.072211 3.008968
v -0.000000 -1.445374 3.355420
v -0.000000 -0.762991 3.572925
v -0.000000 -0.051287 3.653124
v 0.000000 0.662387 3.592936
v 0.000000 1.350607 3.394674
v 0.000000 1.986923 3.065955
v 0.000000 2.546883 2.619414
v 0.000000 3.008968 2.072211
v 0.000000 3.355420 1.445374
v 0.000000 3.572925 0.762991
v 0.000000 3.653124 0.051287
v 0.000000 3.592936 -0.662387
v 0.000000 3.394673 -1.350607
v 0.000000 3.065955 -1.986923
v 0.000000 2.619414 -2.546883
v 0.000000 2.072211 -3.008968
v 0.000000 1.445374 -3.355420
v 0.000000 0.762991 -3.572925
v 0.000000 0.051288 -3.653124
v -0.000000 -0.662387 -3.592936
v -0.000000 -1.350607 -3.394673
v -0.000000 -1.986923 -3.065955
v 0.326169 -2.172123 -3.351731
v 0.278006 -2.796638 -3.798766
v 0.326169 -0.724128 -3.927831
v 0.293525 -1.153313 -4.614979
v 0.347375 0.830277 -3.905431
v 0.283018 0.682031 -4.726316
v 0.326170 2.265360 -3.289431
v 0.297803 2.431853 -4.064500
v 0.326170 3.351731 -2.172123
v 0.306861 3.816136 -2.855185
v 0.326170 3.927831 -0.724128
v 0.296217 4.593702 -1.152167
v 0.326170 3.905955 0.834109
v 0.311668 4.712337 0.670027
v 0.326170 3.289431 2.265360
v 0.297902 4.061748 2.429412
v 0.326170 2.172122 3.351731
v 0.312088 2.858706 3.804954
v 0.326169 0.724128 3.927831
v 0.300301 1.159346 4.600246
v 0.326169 -0.834109 3.905955
v 0.301944 -0.686705 4.727219
v 0.326169 -2.265360 3.289431
v 0.290840 -2.431875 4.050229
v 0.326169 -3.351731 2.172123
v 0.310325 -3.804292 2.852719
v 0.326169 -3.927831 0.724128
v 0.286819 -4.582692 1.139474
v 0.326169 -3.905955 -0.834108
v 0.283416 -4.711098 -0.712897
v 0.326169 -3.289431 -2.265360
v 0.286753 -4.021440 -2.396110
v 0.326169 -0.484437 -0.747518
v 0.326169 -0.329295 -0.827664
v 0.326169 -0.161498 -0.876003
v 0.326169 0.012504 -0.890678
v 0.326169 0.186027 -0.871124
v 0.326169 0.352400 -0.818093
v 0.326169 0.505231 -0.733624
v 0.326169 0.638646 -0.620962
v 0.326169 0.747518 -0.484437
v 0.326169 0.827664 -0.329295
v 0.326169 0.876003 -0.161498
v 0.326169 0.890678 0.012505
v 0.326169 0.871124 0.186027
v 0.326169 0.818094 0.352400
v 0.326169 0.733624 0.505231
v 0.326169 0.620962 0.638646
v 0.326169 0.484437 0.747518
v 0.326169 0.329295 0.827664
v 0.326169 0.161498 0.876003
v 0.326169 -0.012505 0.890678
v 0.326169 -0.186027 0.871124
v 0.326169 -0.352400 0.818094
v 0.326169 -0.505231 0.733624
v 0.326169 -0.638646 0.620962
v 0.326169 -0.747518 0.484437
v 0.326169 -0.827664 0.329295
v 0.326169 -0.876003 0.161498
v 0.326169 -0.890678 -0.012504
v 0.326169 -0.871124 -0.186027
v 0.326169 -0.818094 -0.352400
v 0.326169 -0.733624 -0.505231
v 0.326169 -0.620962 -0.638646
v 0.326169 -2.546883 -2.619414
v 0.326169 -3.008968 -2.072211
v 0.326169 -3.355420 -1.445374
v 0.326169 -3.572925 -0.762991
v 0.326169 -3.653124 -0.051287
v 0.326169 -3.592936 0.662387
v 0.326169 -3.394673 1.350607
v 0.326169 -3.065955 1.986923
v 0.326169 -2.619414 2.546883
v 0.326169 -2.072211 3.008968
v 0.326169 -1.445374 3.355420
v 0.326169 -0.762991 3.572925
v 0.326169 -0.051287 3.653124
v 0.326169 0.662387 3.592936
v 0.326169 1.350607 3.394674
v 0.326170 1.986923 3.065955
v 0.326170 2.546883 2.619414
v 0.326170 3.008968 2.072211
v 0.326170 3.355420 1.445374
v 0.326170 3.572925 0.762991
v 0.326170 3.653124 0.051287
v 0.326170 3.592936 -0.662387
v 0.326170 3.394673 -1.350607
v 0.326170 3.065955 -1.986923
v 0.326170 2.619414 -2.546883
v 0.326170 2.072211 -3.008968
v 0.326169 1.445374 -3.355420
v 0.326169 0.762991 -3.572925
v 0.326169 0.051288 -3.653124
v 0.326169 -0.662387 -3.592936
v 0.326169 -1.350607 -3.394673
v 0.326169 -1.986923 -3.065955
v -0.000000 -0.329295 -0.827664
v -0.000000 -0.484437 -0.747518
v -0.000000 -0.161498 -0.876003
v 0.000000 0.329295 0.827664
v 0.000000 0.484437 0.747518
v 0.000000 0.161498 0.876003
v -0.000000 -0.012505 0.890678
v -0.000000 -0.186027 0.871124
v -0.000000 -0.352400 0.818094
v -0.000000 -0.505231 0.733624
v -0.000000 -0.638646 0.620962
v -0.000000 -0.747518 0.484437
v -0.000000 -0.827664 0.329295
v -0.000000 -0.876003 0.161498
v -0.000000 -0.890678 -0.012504
v -0.000000 -0.871124 -0.186027
v -0.000000 -0.818094 -0.352400
v -0.000000 -0.733624 -0.505231
v -0.000000 -0.620962 -0.638646
v 0.326169 -0.329295 -0.827664
v 0.326169 -0.484437 -0.747518
v 0.326169 -0.161498 -0.876003
v 0.326169 0.329295 0.827664
v 0.326169 0.484437 0.747518
v 0.326169 0.161498 0.876003
v 0.326169 -0.012505 0.890678
v 0.326169 -0.186027 0.871124
v 0.326169 -0.352400 0.818094
v 0.326169 -0.505231 0.733624
v 0.326169 -0.638646 0.620962
v 0.326169 -0.747518 0.484437
v 0.326169 -0.827664 0.329295
v 0.326169 -0.876003 0.161498
v 0.326169 -0.890678 -0.012504
v 0.326169 -0.871124 -0.186027
v 0.326169 -0.818094 -0.352400
v 0.326169 -0.733624 -0.505231
v 0.326169 -0.620962 -0.638646
vn 1.0000 -0.0000 -0.0000
vn 0.9997 0.0213 0.0109
vn 0.9977 0.0036 0.0683
vn 0.9996 0.0193 0.0227
vn 0.9988 -0.0161 0.0454
vn 0.9998 0.0064 0.0197
vn 0.9995 -0.0217 0.0241
vn 0.9999 -0.0011 0.0140
vn 0.9992 -0.0367 0.0175
vn 0.9998 -0.0081 0.0158
vn 0.9996 -0.0283 0.0015
vn 0.9999 -0.0094 0.0080
vn 0.9991 -0.0405 -0.0143
vn 0.9998 -0.0179 0.0058
vn 0.9998 -0.0156 -0.0140
vn 1.0000 -0.0092 -0.0007
vn 0.9992 -0.0173 -0.0364
vn 0.9998 -0.0157 -0.0081
vn 0.9998 -0.0011 -0.0203
vn 1.0000 -0.0058 -0.0068
vn 0.9993 0.0125 -0.0352
vn 0.9999 -0.0050 -0.0155
vn 0.9993 0.0242 -0.0269
vn 0.9999 0.0012 -0.0155
vn 0.9987 0.0453 -0.0216
vn 0.9998 0.0100 -0.0195
vn 0.9997 0.0228 -0.0012
vn 0.9999 0.0077 -0.0065
vn 0.9984 0.0527 0.0187
vn 0.9997 0.0232 -0.0075
vn 0.9979 0.0477 0.0430
vn 0.9996 0.0272 0.0022
vn 0.9986 0.0226 0.0475
vn -1.0000 -0.0000 -0.0000
vn -0.9997 0.0233 0.0119
vn -0.9981 0.0032 0.0620
vn -0.9995 0.0203 0.0238
vn -0.9992 -0.0136 0.0385
vn -0.9997 0.0234 -0.0117
vn -0.9965 -0.0722 0.0424
vn -0.9996 -0.0022 0.0269
vn -0.9993 -0.0329 0.0157
vn -0.9998 -0.0083 0.0162
vn -0.9997 -0.0243 0.0013
vn -0.9999 -0.0092 0.0079
vn -0.9993 -0.0362 -0.0128
vn -0.9998 -0.0183 0.0059
vn -0.9998 -0.0137 -0.0124
vn -1.0000 -0.0091 -0.0007
vn -0.9993 -0.0157 -0.0329
vn -0.9998 -0.0162 -0.0083
vn -0.9998 -0.0009 -0.0179
vn -1.0000 -0.0058 -0.0068
vn -0.9995 0.0110 -0.0311
vn -0.9999 -0.0051 -0.0157
vn -0.9995 0.0201 -0.0223
vn -0.9999 0.0012 -0.0151
vn -0.9990 0.0412 -0.0197
vn -0.9997 0.0104 -0.0203
vn -0.9998 0.0202 -0.0011
vn -0.9999 0.0076 -0.0065
vn -0.9987 0.0479 0.0170
vn -0.9997 0.0242 -0.0078
vn -0.9986 0.0391 0.0352
vn -0.9996 0.0268 0.0022
vn -0.9985 0.0233 0.0488
vn -0.0444 0.4532 0.8903
vn 0.2069 -0.6369 0.7426
vn -0.0000 -0.9965 0.0840
vn -0.0000 -0.4590 -0.8885
vn -0.2540 0.9611 0.1089
vn -0.0000 -0.9937 -0.1120
vn -0.0000 -0.2768 -0.9609
vn 0.1287 -0.8838 0.4499
vn -0.0000 -0.9528 -0.3037
vn -0.0000 -0.0840 -0.9965
vn -0.2391 0.8496 0.4702
vn -0.0000 -0.8752 -0.4837
vn -0.0000 0.1120 -0.9937
vn 0.1764 -0.9813 0.0768
vn -0.0000 -0.7640 -0.6452
vn -0.0000 0.3037 -0.9528
vn -0.2609 0.6015 0.7551
vn -0.0000 -0.6235 -0.7818
vn -0.0000 0.4837 -0.8752
vn 0.1320 -0.9426 -0.3067
vn -0.0000 0.6452 -0.7640
vn -0.2044 0.2704 0.9408
vn -0.0000 0.7818 -0.6235
vn 0.1430 -0.7523 -0.6431
vn -0.0000 0.8885 -0.4590
vn -0.2475 -0.1090 0.9627
vn -0.0000 0.9609 -0.2768
vn 0.1174 -0.4505 -0.8850
vn -0.0000 0.9965 -0.0840
vn -0.2011 -0.4743 0.8571
vn -0.0000 0.9937 0.1120
vn 0.1400 -0.0773 -0.9871
vn -0.0000 0.9528 0.3037
vn -0.2529 -0.7568 0.6028
vn -0.0000 0.8752 0.4837
vn 0.1432 0.3062 -0.9411
vn -0.0000 0.7640 0.6452
vn -0.2716 -0.9249 0.2659
vn -0.0000 0.6235 0.7818
vn 0.2172 0.6342 -0.7420
vn -0.0000 0.4590 0.8885
vn -0.2647 -0.9582 -0.1085
vn -0.0000 0.2768 0.9609
vn 0.1100 0.8858 -0.4509
vn -0.0000 0.0840 0.9965
vn -0.2092 -0.8556 -0.4735
vn -0.0000 -0.1120 0.9937
vn 0.1372 0.9875 -0.0773
vn -0.0000 -0.3037 0.9528
vn -0.2783 -0.5984 -0.7513
vn -0.3040 0.4613 -0.8335
vn -0.0000 -0.4837 0.8752
vn 0.1140 0.9447 0.3074
vn 0.1182 0.0775 0.9900
vn -0.0000 -0.6452 0.7640
vn -0.3501 -0.2588 -0.9002
vn -0.3003 0.7461 -0.5943
vn -0.0000 -0.7818 0.6235
vn 0.2460 0.7368 0.6298
vn 0.1891 -0.3051 0.9334
vn -0.0000 -0.8885 0.4590
vn -0.1635 0.1110 -0.9803
vn -0.2445 0.9348 -0.2576
vn -0.0000 -0.9609 0.2768
vt 0.000000 0.000000
vt 0.000000 0.000000
vt 0.000000 0.000000
vt 0.000000 0.000000
vt 0.000000 0.000000
vt 0.000000 0.000000
vt 0.000000 0.000000
vt 0.000000 0.000000
vt 0.000000 0.000000
vt 0.000000 0.000000
vt 0.000000 0.000000
vt 0.000000 0.000000
vt 0.000000 0.000000
vt 0.000000 0.000000
vt 0.000000 0.000000
vt 0.000000 0.000000
vt 0.000000 0.000000
vt 0.000000 0.000000
vt 0.000000 0.000000
vt 0.000000 0.000000
vt 0.000000 0.000000
vt 0.000000 0.000000
vt 0.000000 0.000000
vt 0.000000 0.000000
vt 0.000000 0.000000
vt 0.000000 0.000000
vt 0.000000 0.000000
vt 0.000000 0.000000
vt 0.000000 0.000000
vt 0.000000 0.000000
vt 0.000000 0.000000
vt 0.000000 0.000000
vt 0.000000 0.000000
vt 0.000000 0.000000
vt 0.000000 0.000000
vt 0.000000 0.000000
vt 0.000000 0.000000
vt 0.000000 0.000000
vt 0.000000 0.000000
vt 0.000000 0.000000
vt 0.000000 0.000000
vt 0.000000 0.000000
vt 0.000000 0.000000
vt 0.000000 0.000000
vt 0.000000 0.000000
vt 0.000000 0.000000
vt 0.000000 0.000000
vt 0.000000 0.000000
vt 0.000000 0.000000
vt 0.000000 0.000000
vt 0.000000 0.000000
vt 0.000000 0.000000
vt 0.000000 0.000000
vt 0.000000 0.000000
vt 0.000000 0.000000
vt 0.000000 0.000000
vt 0.000000 0.000000
vt 0.000000 0.000000
vt 0.000000 0.000000
vt 0.000000 0.000000
vt 0.000000 0.000000
vt 0.000000 0.000000
vt 0.000000 0.000000
vt 0.000000 0.000000
vt 0.000000 0.000000
vt 0.000000 0.000000
vt 0.000000 0.000000
vt 0.000000 0.000000
vt 0.000000 0.000000
vt 0.000000 0.000000
vt 0.000000 0.000000
vt 0.000000 0.000000
vt 0.000000 0.000000
vt 0.000000 0.000000
vt 0.000000 0.000000
vt 0.000000 0.000000
vt 0.000000 0.000000
vt 0.000000 0.000000
vt 0.000000 0.000000
vt 0.000000 0.000000
vt 0.000000 0.000000
vt 0.000000 0.000000
vt 0.000000 0.000000
vt 0.000000 0.000000
vt 0.000000 0.000000
vt 0.000000 0.000000
vt 0.000000 0.000000
vt 0.000000 0.000000
vt 0.000000 0.000000
vt 0.000000 0.000000
vt 0.000000 0.000000
vt 0.000000 0.000000
vt 0.000000 0.000000
vt 0.000000 0.000000
vt 0.000000 0.000000
vt 0.000000 0.000000
vt 0.000000 0.000000
vt 0.000000 0.000000
vt 0.000000 0.000000
vt 0.000000 0.000000
vt 0.000000 0.000000
vt 0.000000 0.000000
vt 0.000000 0.000000
vt 0.000000 0.000000
vt 0.000000 0.000000
vt 0.000000 0.000000
vt 0.000000 0.000000
vt 0.000000 0.000000
vt 0.000000 0.000000
vt 0.000000 0.000000
vt 0.000000 0.000000
vt 0.000000 0.000000
vt 0.000000 0.000000
vt 0.000000 0.000000
vt 0.000000 0.000000
vt 0.000000 0.000000
vt 0.000000 0.000000
vt 0.000000 0.000000
vt 0.000000 0.000000
vt 0.000000 0.000000
vt 0.000000 0.000000
vt 0.000000 0.000000
vt 0.000000 0.000000
vt 0.000000 0.000000
vt 0.000000 0.000000
vt 0.000000 0.000000
vt 0.000000 0.000000
vt 0.000000 0.000000
vt 0.000000 0.000000
vt 0.000000 0.000000
vt 0.000000 0.000000
vt 0.000000 0.000000
vt 0.000000 0.000000
vt 0.000000 0.000000
vt 0.000000 0.000000
vt 0.000000 0.000000
vt 0.000000 0.000000
vt 0.000000 0.000000
vt 0.000000 0.000000
vt 0.000000 0.000000
vt 0.000000 0.000000
vt 0.000000 0.000000
vt 0.000000 0.000000
vt 0.000000 0.000000
vt 0.000000 0.000000
vt 0.000000 0.000000
vt 0.000000 0.000000
vt 0.000000 0.000000
vt 0.000000 0.000000
vt 0.000000 0.000000
vt 0.000000 0.000000
vt 0.000000 0.000000
vt 0.000000 0.000000
vt 0.000000 0.000000
vt 0.000000 0.000000
vt 0.000000 0.000000
vt 0.000000 0.000000
vt 0.000000 0.000000
vt 0.000000 0.000000
vt 0.000000 0.000000
vt 0.000000 0.000000
vt 0.000000 0.000000
vt 0.000000 0.000000
vt 0.000000 0.000000
vt 0.000000 0.000000
vt 0.000000 0.000000
vt 0.000000 0.000000
vt 0.000000 0.000000
vt 0.000000 0.000000
vt 0.000000 0.000000
vt 0.000000 0.000000
vt 0.000000 0.000000
vt 0.000000 0.000000
vt 0.000000 0.000000
vt 0.000000 0.000000
vt 0.000000 0.000000
vt 0.000000 0.000000
vt 0.000000 0.000000
vt 0.000000 0.000000
vt 0.000000 0.000000
vt 0.000000 0.000000
vt 0.000000 0.000000
vt 0.000000 0.000000
vt 0.000000 0.000000
vt 0.000000 0.000000
vt 0.000000 0.000000
vt 0.000000 0.000000
vt 0.000000 0.000000
vt 0.000000 0.000000
vt 0.000000 0.000000
vt 0.000000 0.000000
vt 0.000000 0.000000
vt 0.000000 0.000000
vt 0.000000 0.000000
vt 0.000000 0.000000
vt 0.000000 0.000000
vt 0.000000 0.000000
vt 0.000000 0.000000
vt 0.000000 0.000000
vt 0.000000 0.000000
vt 0.000000 0.000000
vt 0.000000 0.000000
vt 0.000000 0.000000
vt 0.000000 0.000000
vt 0.000000 0.000000
vt 0.000000 0.000000
vt 0.000000 0.000000
vt 0.000000 0.000000
vt 0.000000 0.000000
vt 0.000000 0.000000
vt 0.000000 0.000000
vt 0.000000 0.000000
vt 0.000000 0.000000
vt 0.000000 0.000000
vt 0.000000 0.000000
vt 0.000000 0.000000
vt 0.000000 0.000000
vt 0.000000 0.000000
vt 0.000000 0.000000
vt 0.000000 0.000000
vt 0.000000 0.000000
vt 0.000000 0.000000
vt 0.000000 0.000000
vt 0.000000 0.000000
vt 0.000000 0.000000
vt 0.000000 0.000000
vt 0.000000 0.000000
vt 0.000000 0.000000
vt 0.000000 0.000000
vt 0.000000 0.000000
s 0
f 65/65/1 211/211/1 210/210/1 66/66/1
f 66/66/1 210/210/1 209/209/1 67/67/1
f 67/67/1 209/209/1 208/208/1 68/68/1
f 68/68/1 208/208/1 207/207/1 69/69/1
f 69/69/1 207/207/1 206/206/1 70/70/1
f 70/70/1 206/206/1 205/205/1 71/71/1
f 71/71/1 205/205/1 204/204/1 72/72/1
f 72/72/1 204/204/1 203/203/1 73/73/1
f 73/73/1 203/203/1 202/202/1 74/74/1
f 74/74/1 202/202/1 201/201/1 75/75/1
f 75/75/1 201/201/1 200/200/1 76/76/1
f 76/76/1 200/200/1 199/199/1 77/77/1
f 77/77/1 199/199/1 198/198/1 78/78/1
f 78/78/1 198/198/1 196/196/1 79/79/1
f 79/79/1 196/196/1 197/197/1 80/80/1
f 80/80/1 197/197/1 48/48/1 81/81/1
f 81/81/1 48/48/1 47/47/1 82/82/1
f 82/82/1 47/47/1 46/46/1 83/83/1
f 83/83/1 46/46/1 45/45/1 84/84/1
f 84/84/1 45/45/1 44/44/1 85/85/1
f 85/85/1 44/44/1 43/43/1 86/86/1
f 86/86/1 43/43/1 42/42/1 87/87/1
f 87/87/1 42/42/1 41/41/1 88/88/1
f 88/88/1 41/41/1 40/40/1 89/89/1
f 89/89/1 40/40/1 39/39/1 90/90/1
f 90/90/1 39/39/1 38/38/1 91/91/1
f 91/91/1 38/38/1 37/37/1 92/92/1
f 92/92/1 37/37/1 36/36/1 93/93/1
f 93/93/1 36/36/1 195/195/1 94/94/1
f 94/94/1 195/195/1 193/193/1 95/95/1
f 95/95/1 193/193/1 194/194/1 96/96/1
f 96/96/1 194/194/1 211/211/1 65/65/1
f 1/1/2 96/96/2 65/65/2 32/32/2
f 2/2/3 95/95/3 96/96/3 1/1/3
f 3/3/4 94/94/4 95/95/4 2/2/4
f 4/4/5 93/93/5 94/94/5 3/3/5
f 5/5/6 92/92/6 93/93/6 4/4/6
f 6/6/7 91/91/7 92/92/7 5/5/7
f 7/7/8 90/90/8 91/91/8 6/6/8
f 8/8/9 89/89/9 90/90/9 7/7/9
f 9/9/10 88/88/10 89/89/10 8/8/10
f 10/10/11 87/87/11 88/88/11 9/9/11
f 11/11/12 86/86/12 87/87/12 10/10/12
f 12/12/13 85/85/13 86/86/13 11/11/13
f 13/13/14 84/84/14 85/85/14 12/12/14
f 14/14/15 83/83/15 84/84/15 13/13/15
f 15/15/16 82/82/16 83/83/16 14/14/16
f 16/16/17 81/81/17 82/82/17 15/15/17
f 17/17/18 80/80/18 81/81/18 16/16/18
f 18/18/19 79/79/19 80/80/19 17/17/19
f 19/19/20 78/78/20 79/79/20 18/18/20
f 20/20/21 77/77/21 78/78/21 19/19/21
f 21/21/22 76/76/22 77/77/22 20/20/22
f 22/22/23 75/75/23 76/76/23 21/21/23
f 23/23/24 74/74/24 75/75/24 22/22/24
f 24/24/25 73/73/25 74/74/25 23/23/25
f 25/25/26 72/72/26 73/73/26 24/24/26
f 26/26/27 71/71/27 72/72/27 25/25/27
f 27/27/28 70/70/28 71/71/28 26/26/28
f 28/28/29 69/69/29 70/70/29 27/27/29
f 29/29/30 68/68/30 69/69/30 28/28/30
f 30/30/31 67/67/31 68/68/31 29/29/31
f 31/31/32 66/66/32 67/67/32 30/30/32
f 32/32/33 65/65/33 66/66/33 31/31/33
f 161/161/34 162/162/34 229/229/34 230/230/34
f 162/162/34 163/163/34 228/228/34 229/229/34
f 163/163/34 164/164/34 227/227/34 228/228/34
f 164/164/34 165/165/34 226/226/34 227/227/34
f 165/165/34 166/166/34 225/225/34 226/226/34
f 166/166/34 167/167/34 224/224/34 225/225/34
f 167/167/34 168/168/34 223/223/34 224/224/34
f 168/168/34 169/169/34 222/222/34 223/223/34
f 169/169/34 170/170/34 221/221/34 222/222/34
f 170/170/34 171/171/34 220/220/34 221/221/34
f 171/171/34 172/172/34 219/219/34 220/220/34
f 172/172/34 173/173/34 218/218/34 219/219/34
f 173/173/34 174/174/34 217/217/34 218/218/34
f 174/174/34 175/175/34 215/215/34 217/217/34
f 175/175/34 176/176/34 216/216/34 215/215/34
f 176/176/34 177/177/34 144/144/34 216/216/34
f 177/177/34 178/178/34 143/143/34 144/144/34
f 178/178/34 179/179/34 142/142/34 143/143/34
f 179/179/34 180/180/34 141/141/34 142/142/34
f 180/180/34 181/181/34 140/140/34 141/141/34
f 181/181/34 182/182/34 139/139/34 140/140/34
f 182/182/34 183/183/34 138/138/34 139/139/34
f 183/183/34 184/184/34 137/137/34 138/138/34
f 184/184/34 185/185/34 136/136/34 137/137/34
f 185/185/34 186/186/34 135/135/34 136/136/34
f 186/186/34 187/187/34 134/134/34 135/135/34
f 187/187/34 188/188/34 133/133/34 134/134/34
f 188/188/34 189/189/34 132/132/34 133/133/34
f 189/189/34 190/190/34 214/214/34 132/132/34
f 190/190/34 191/191/34 212/212/34 214/214/34
f 191/191/34 192/192/34 213/213/34 212/212/34
f 192/192/34 161/161/34 230/230/34 213/213/34
f 97/97/35 128/128/35 161/161/35 192/192/35
f 98/98/36 97/97/36 192/192/36 191/191/36
f 99/99/37 98/98/37 191/191/37 190/190/37
f 100/100/38 99/99/38 190/190/38 189/189/38
f 101/101/39 100/100/39 189/189/39 188/188/39
f 102/102/40 101/101/40 188/188/40 187/187/40
f 103/103/41 102/102/41 187/187/41 186/186/41
f 104/104/42 103/103/42 186/186/42 185/185/42
f 105/105/43 104/104/43 185/185/43 184/184/43
f 106/106/44 105/105/44 184/184/44 183/183/44
f 107/107/45 106/106/45 183/183/45 182/182/45
f 108/108/46 107/107/46 182/182/46 181/181/46
f 109/109/47 108/108/47 181/181/47 180/180/47
f 110/110/48 109/109/48 180/180/48 179/179/48
f 111/111/49 110/110/49 179/179/49 178/178/49
f 112/112/50 111/111/50 178/178/50 177/177/50
f 113/113/51 112/112/51 177/177/51 176/176/51
f 114/114/52 113/113/52 176/176/52 175/175/52
f 115/115/53 114/114/53 175/175/53 174/174/53
f 116/116/54 115/115/54 174/174/54 173/173/54
f 117/117/55 116/116/55 173/173/55 172/172/55
f 118/118/56 117/117/56 172/172/56 171/171/56
f 119/119/57 118/118/57 171/171/57 170/170/57
f 120/120/58 119/119/58 170/170/58 169/169/58
f 121/121/59 120/120/59 169/169/59 168/168/59
f 122/122/60 121/121/60 168/168/60 167/167/60
f 123/123/61 122/122/61 167/167/61 166/166/61
f 124/124/62 123/123/62 166/166/62 165/165/62
f 125/125/63 124/124/63 165/165/63 164/164/63
f 126/126/64 125/125/64 164/164/64 163/163/64
f 127/127/65 126/126/65 163/163/65 162/162/65
f 128/128/66 127/127/66 162/162/66 161/161/66
f 1/1/67 32/32/67 128/128/67 97/97/67
f 7/7/68 6/6/68 102/102/68 103/103/68
f 59/59/69 60/60/69 156/156/69 155/155/69
f 33/33/70 34/34/70 130/130/70 129/129/70
f 8/8/71 7/7/71 103/103/71 104/104/71
f 60/60/72 61/61/72 157/157/72 156/156/72
f 34/34/73 35/35/73 131/131/73 130/130/73
f 9/9/74 8/8/74 104/104/74 105/105/74
f 61/61/75 62/62/75 158/158/75 157/157/75
f 195/195/76 36/36/76 132/132/76 214/214/76
f 10/10/77 9/9/77 105/105/77 106/106/77
f 62/62/78 63/63/78 159/159/78 158/158/78
f 36/36/79 37/37/79 133/133/79 132/132/79
f 11/11/80 10/10/80 106/106/80 107/107/80
f 63/63/81 64/64/81 160/160/81 159/159/81
f 37/37/82 38/38/82 134/134/82 133/133/82
f 12/12/83 11/11/83 107/107/83 108/108/83
f 64/64/84 33/33/84 129/129/84 160/160/84
f 38/38/85 39/39/85 135/135/85 134/134/85
f 13/13/86 12/12/86 108/108/86 109/109/86
f 39/39/87 40/40/87 136/136/87 135/135/87
f 14/14/88 13/13/88 109/109/88 110/110/88
f 40/40/89 41/41/89 137/137/89 136/136/89
f 15/15/90 14/14/90 110/110/90 111/111/90
f 41/41/91 42/42/91 138/138/91 137/137/91
f 16/16/92 15/15/92 111/111/92 112/112/92
f 42/42/93 43/43/93 139/139/93 138/138/93
f 17/17/94 16/16/94 112/112/94 113/113/94
f 43/43/95 44/44/95 140/140/95 139/139/95
f 18/18/96 17/17/96 113/113/96 114/114/96
f 44/44/97 45/45/97 141/141/97 140/140/97
f 19/19/98 18/18/98 114/114/98 115/115/98
f 45/45/99 46/46/99 142/142/99 141/141/99
f 20/20/100 19/19/100 115/115/100 116/116/100
f 46/46/101 47/47/101 143/143/101 142/142/101
f 21/21/102 20/20/102 116/116/102 117/117/102
f 47/47/103 48/48/103 144/144/103 143/143/103
f 22/22/104 21/21/104 117/117/104 118/118/104
f 48/48/105 197/197/105 216/216/105 144/144/105
f 23/23/106 22/22/106 118/118/106 119/119/106
f 49/49/107 50/50/107 146/146/107 145/145/107
f 24/24/108 23/23/108 119/119/108 120/120/108
f 50/50/109 51/51/109 147/147/109 146/146/109
f 25/25/110 24/24/110 120/120/110 121/121/110
f 51/51/111 52/52/111 148/148/111 147/147/111
f 26/26/112 25/25/112 121/121/112 122/122/112
f 52/52/113 53/53/113 149/149/113 148/148/113
f 27/27/114 26/26/114 122/122/114 123/123/114
f 53/53/115 54/54/115 150/150/115 149/149/115
f 28/28/116 27/27/116 123/123/116 124/124/116
f 2/2/117 1/1/117 97/97/117 98/98/117
f 54/54/118 55/55/118 151/151/118 150/150/118
f 29/29/119 28/28/119 124/124/119 125/125/119
f 3/3/120 2/2/120 98/98/120 99/99/120
f 55/55/121 56/56/121 152/152/121 151/151/121
f 30/30/122 29/29/122 125/125/122 126/126/122
f 4/4/123 3/3/123 99/99/123 100/100/123
f 56/56/124 57/57/124 153/153/124 152/152/124
f 31/31/125 30/30/125 126/126/125 127/127/125
f 5/5/126 4/4/126 100/100/126 101/101/126
f 57/57/127 58/58/127 154/154/127 153/153/127
f 32/32/128 31/31/128 127/127/128 128/128/128
f 6/6/129 5/5/129 101/101/129 102/102/129
f 58/58/130 59/59/130 155/155/130 154/154/130
f 34/34/1 33/33/1 194/194/1 193/193/1
f 35/35/1 34/34/1 193/193/1 195/195/1
f 50/50/1 49/49/1 197/197/1 196/196/1
f 51/51/1 50/50/1 196/196/1 198/198/1
f 52/52/1 51/51/1 198/198/1 199/199/1
f 53/53/1 52/52/1 199/199/1 200/200/1
f 54/54/1 53/53/1 200/200/1 201/201/1
f 55/55/1 54/54/1 201/201/1 202/202/1
f 56/56/1 55/55/1 202/202/1 203/203/1
f 57/57/1 56/56/1 203/203/1 204/204/1
f 58/58/1 57/57/1 204/204/1 205/205/1
f 59/59/1 58/58/1 205/205/1 206/206/1
f 60/60/1 59/59/1 206/206/1 207/207/1
f 61/61/1 60/60/1 207/207/1 208/208/1
f 62/62/1 61/61/1 208/208/1 209/209/1
f 63/63/1 62/62/1 209/209/1 210/210/1
f 64/64/1 63/63/1 210/210/1 211/211/1
f 33/33/1 64/64/1 211/211/1 194/194/1
f 129/129/1 130/130/1 212/212/1 213/213/1
f 130/130/1 131/131/1 214/214/1 212/212/1
f 145/145/1 146/146/1 215/215/1 216/216/1
f 146/146/1 147/147/1 217/217/1 215/215/1
f 147/147/1 148/148/1 218/218/1 217/217/1
f 148/148/1 149/149/1 219/219/1 218/218/1
f 149/149/1 150/150/1 220/220/1 219/219/1
f 150/150/1 151/151/1 221/221/1 220/220/1
f 151/151/1 152/152/1 222/222/1 221/221/1
f 152/152/1 153/153/1 223/223/1 222/222/1
f 153/153/1 154/154/1 224/224/1 223/223/1
f 154/154/1 155/155/1 225/225/1 224/224/1
f 155/155/1 156/156/1 226/226/1 225/225/1
f 156/156/1 157/157/1 227/227/1 226/226/1
f 157/157/1 158/158/1 228/228/1 227/227/1
f 158/158/1 159/159/1 229/229/1 228/228/1
f 159/159/1 160/160/1 230/230/1 229/229/1
f 160/160/1 129/129/1 213/213/1 230/230/1
f 131/131/1 35/35/1 195/195/1 214/214/1
f 49/49/1 145/145/1 216/216/1 197/197/1
